<svg width="32" height="32" viewBox="0 0 32 32" fill="none" xmlns="http://www.w3.org/2000/svg">
<g clip-path="url(#clip0)">
<path d="M16.0003 2.66675C8.66699 2.66675 2.66699 8.66675 2.66699 16.0001C2.66699 22.2667 7.06699 27.6001 12.9337 28.9334L16.0003 32.0001L19.067 28.9334C24.9337 27.6001 29.3337 22.2667 29.3337 16.0001C29.3337 8.66675 23.3337 2.66675 16.0003 2.66675ZM12.9337 18.2667C13.7337 18.9334 14.8003 19.2001 16.267 19.2001C17.3337 19.2001 18.1337 19.0667 18.9337 18.8001C19.6003 18.5334 20.1337 18.0001 20.267 17.4667H23.6003C23.467 18.5334 23.067 19.3334 22.267 20.0001C21.467 20.6667 20.667 21.2001 19.6003 21.4667C18.5337 21.7334 17.467 21.8667 16.1337 21.8667C13.7337 21.8667 11.867 21.3334 10.4003 20.2667C8.93366 19.2001 8.26699 17.6001 8.26699 15.7334C8.26699 13.8667 8.93366 12.2667 10.4003 11.2001C11.867 10.1334 13.7337 9.46675 16.1337 9.46675C17.3337 9.46675 18.4003 9.60008 19.467 9.86675C20.5337 10.1334 21.3337 10.6667 22.1337 11.3334C22.9337 12.0001 23.3337 12.9334 23.467 13.8667H20.1337C19.867 13.3334 19.467 12.8001 18.8003 12.4001C18.1337 12.0001 17.3337 11.8667 16.267 11.8667C14.8003 11.8667 13.6003 12.1334 12.8003 12.8001C12.0003 13.4667 11.6003 14.4001 11.6003 15.4667C11.6003 16.5334 12.1337 17.7334 12.9337 18.2667Z" fill="#292E33"/>
</g>
<defs>
<clipPath id="clip0">
<rect width="32" height="32" fill="white"/>
</clipPath>
</defs>
</svg>
