<svg width="24" height="24" viewBox="0 0 24 24" fill="none" xmlns="http://www.w3.org/2000/svg">
<path d="M12 1C6.5 1 2 5.5 2 11C2 15.7 5.3 19.7 9.7 20.7L12 23L14.3 20.7C18.7 19.7 22 15.7 22 11C22 5.5 17.5 1 12 1ZM9.7 12.7C10.3 13.2 11.1 13.4 12.2 13.4C13 13.4 13.6 13.3 14.2 13.1C14.7 12.9 15.1 12.5 15.2 12.1H17.7C17.6 12.9 17.3 13.5 16.7 14C16.1 14.5 15.5 14.9 14.7 15.1C13.9 15.3 13.1 15.4 12.1 15.4C10.3 15.4 8.9 15 7.8 14.2C6.7 13.4 6.2 12.2 6.2 10.8C6.2 9.4 6.7 8.2 7.8 7.4C8.9 6.6 10.3 6.1 12.1 6.1C13 6.1 13.8 6.2 14.6 6.4C15.4 6.6 16 7 16.6 7.5C17.2 8 17.5 8.7 17.6 9.4H15.1C14.9 9 14.6 8.6 14.1 8.3C13.6 8 13 7.9 12.2 7.9C11.1 7.9 10.2 8.1 9.6 8.6C9 9.1 8.7 9.8 8.7 10.6C8.7 11.4 9.1 12.3 9.7 12.7Z" fill="#292E33"/>
</svg>
