<svg width="100" height="50" viewBox="0 0 100 50" fill="none" xmlns="http://www.w3.org/2000/svg">
<g clip-path="url(#clip0)">
<path d="M81.9144 30.334C81.5236 30.334 81.2013 30.0369 81.2013 29.6665C81.2013 29.6584 81.2054 29.6503 81.2054 29.6421V18.3611V18.3122L81.2094 18.2634C81.2456 17.9297 81.5438 17.6692 81.9104 17.6692C82.277 17.6692 82.5792 17.9338 82.6155 18.2634L82.6195 18.3122V18.3611V29.6421C82.6195 29.6503 82.6235 29.6584 82.6235 29.6665C82.6235 30.0369 82.3052 30.334 81.9144 30.334ZM83.2399 15.5815H80.5889C78.3489 15.5815 78.2119 17.4088 78.2119 18.589V29.4061C78.2119 30.5863 78.3449 32.4176 80.5889 32.4176H83.2399C85.48 32.4176 85.617 30.5904 85.617 29.4061V18.589C85.621 17.4129 85.484 15.5815 83.2399 15.5815Z" fill="#0070BA"/>
<path d="M33.3345 15.5815H39.4422V17.6733H36.5334V32.4176H33.3345V15.5815Z" fill="#0070BA"/>
<path d="M39.9136 32.4176H43.044L43.3461 27.9451H44.857L45.1511 32.4176H48.2855L46.6135 15.5856H41.5855L39.9136 32.4176ZM43.459 26.0934L44.0109 17.6733H44.1922L44.7401 26.0934H43.459Z" fill="#0070BA"/>
<path d="M52.8704 26.5248V29.691C52.8704 30.1224 53.1847 30.2486 53.374 30.2486C53.6681 30.2486 53.8736 29.98 53.8736 29.691V25.776C53.8736 25.247 53.785 24.6732 52.5884 24.6732H51.2911V22.8215H52.6367C53.5513 22.8215 53.8736 22.6017 53.8736 21.5762V18.2269C53.8736 17.9379 53.6681 17.6774 53.374 17.6774C53.1887 17.6774 52.8704 17.7955 52.8704 18.2269V20.9739H49.6675V18.5972C49.6675 17.417 49.8085 15.5897 52.0445 15.5897H54.6995C56.9436 15.5897 57.0765 17.417 57.0765 18.5972V21.2913C57.0765 23.1145 55.8639 23.6191 54.901 23.5703V23.7412C57.0483 23.6883 57.0765 25.422 57.0765 26.0243V29.4102C57.0765 30.5904 56.9396 32.4177 54.6995 32.4177H52.0445C49.8045 32.4177 49.6675 30.5904 49.6675 29.4102V26.5248H52.8704Z" fill="#0070BA"/>
<path d="M59.1836 15.5815H66.5926V32.4176H63.6073V17.6733H62.169V32.4176H59.1836V15.5815Z" fill="#0070BA"/>
<path d="M68.9136 32.4176H72.1125V26.6957H73.9416C76.1856 26.6957 76.5402 24.8684 76.5402 23.6842V18.589C76.5402 17.4088 76.1816 15.5815 73.9416 15.5815H68.9136V32.4176ZM72.1125 24.8399V17.6733H72.9545C73.301 17.6733 73.5548 17.9867 73.5548 18.5117V23.9975C73.5548 24.5266 73.305 24.8359 72.9545 24.8359L72.1125 24.8399Z" fill="#0070BA"/>
<path d="M95.8384 15.5815H100V32.4176H96.7972V21.861H96.6844L95.0326 32.4176H92.4783L90.8305 21.861H90.7177V32.4176H87.5107V15.5815H91.6725L93.7514 27.412L95.8384 15.5815Z" fill="#0070BA"/>
<path d="M26.5058 17.2948C26.4695 19 26.2641 20.8029 26.0102 21.8773C26.1029 20.0256 25.8813 17.4047 25.4583 15.3618C25.0393 13.3188 23.8387 9.90845 22.8839 8.32943C22.0056 9.83113 20.9178 12.7816 20.3497 15.3455C19.7776 17.9053 19.7615 21.0064 19.7615 21.9383C19.6084 21.1488 19.2297 18.357 19.3385 15.549C19.4271 13.2293 19.9629 10.8526 20.257 9.7538C21.3771 6.09926 22.6502 3.75922 22.8839 3.38888C23.1216 3.76329 24.725 6.64053 25.5509 9.66427C26.3728 12.6921 26.538 15.5897 26.5058 17.2948ZM22.904 30.3543C22.4084 29.4102 21.6349 27.6114 21.5624 24.8318C21.5422 22.1377 22.6099 19.8343 22.9241 19.35C23.2021 19.8343 24.1167 21.8406 24.2295 24.5877C24.298 27.2777 23.4197 29.3898 22.904 30.3543ZM26.7959 9.70497C25.7887 5.23243 23.2464 1.59417 22.904 1C22.352 1.83428 20.3296 5.04523 19.3022 8.61023C18.1822 12.5822 18.017 16.1065 18.3997 19.582C18.7865 23.0493 20.2409 26.6143 20.2409 26.6143C21.0145 28.4864 22.1707 30.4886 22.9241 31.4735C24.024 30.0247 26.5662 25.7068 27.3559 20.0663C27.791 16.9245 27.8071 14.1734 26.7959 9.70497Z" fill="#0070BA"/>
<path d="M16.6955 32.4135V37.704C16.7036 37.6959 16.7076 37.6918 16.7197 37.6837C18.5488 35.8401 21.5221 35.8401 23.3512 37.6837C25.1843 39.5232 25.1843 42.5184 23.3512 44.3579C23.3431 44.366 23.3391 44.3742 23.3311 44.3823C23.319 44.3904 23.3109 44.3986 23.3028 44.4067C21.4738 46.2299 19.0846 47.1456 16.6955 47.1456C14.3024 47.1456 11.8972 46.2218 10.0681 44.3864C6.84501 41.1429 6.45824 36.1209 8.91987 32.4583C9.25023 31.9618 9.63297 31.4937 10.0681 31.0542C11.8972 29.2147 14.2984 28.295 16.6955 28.295V15.675C7.47754 15.675 0 23.1917 0 32.4542C0 41.7289 7.47754 49.2415 16.6955 49.2415C21.506 49.2415 25.833 47.1944 28.8788 43.9265V32.4135H16.6955Z" fill="#0070BA"/>
<path d="M96.9917 45.1033C96.9917 46.6708 96.267 46.95 94.4207 46.95H92.7243V39.7868H94.4207V42.5508H94.7041C96.3722 42.5508 96.9917 42.9336 96.9917 44.3655V45.1033ZM82.8208 41.1389H81.5333V46.954H79.9178V41.1389H78.5412V39.7788H82.8208V41.1389ZM69.7512 44.3934C69.7512 45.8492 69.0022 46.24 67.33 46.24V46.95H65.6781V46.24C64.0019 46.24 63.2407 45.8492 63.2407 44.3934V42.1559C63.2407 40.6922 63.9695 40.3212 65.6781 40.3212V39.7868H67.33V40.3212C69.0265 40.3212 69.7512 40.6922 69.7512 42.1559V44.3934ZM54.3576 41.1389H52.0335V42.5468H54.1146V43.9028H52.0335V45.5899H54.3576V46.95H50.2804V39.7788H54.3576V41.1389ZM40.2717 46.95H38.5712V43.8151H37.7007V46.95H36.0042V39.7868H37.7007V42.5508H38.5712V39.7868H40.2717V46.95ZM99.996 38H33V49H100V38H99.996ZM64.8926 42.112V44.4054C64.8926 44.8281 65.0303 44.9199 65.4028 44.9199H65.6781V41.5816H65.4028C65.0303 41.5856 64.8926 41.6893 64.8926 42.112ZM94.7973 43.8151H94.4207V45.6856H94.7973C95.1778 45.6856 95.2912 45.5899 95.2912 45.1831V44.3216C95.2912 43.9068 95.1778 43.8151 94.7973 43.8151ZM67.5891 41.5856H67.326V44.9239H67.5891C67.9657 44.9239 68.1033 44.8202 68.1033 44.3974V42.0961C68.1074 41.6693 67.9697 41.5856 67.5891 41.5856Z" fill="#0070BA"/>
</g>
<defs>
<clipPath id="clip0">
<rect width="100" height="50" fill="white"/>
</clipPath>
</defs>
</svg>
