<svg width="138" height="36" viewBox="0 0 138 36" fill="none" xmlns="http://www.w3.org/2000/svg">
<g clip-path="url(#clip0)">
<path d="M0 0V36H36V0H0ZM11.188 6.03C11.188 3.285 15.203 3.285 15.203 6.03V20.025C15.2481 21.87 18 22.005 18 20.025V6.03C18 3.285 21.9699 3.285 22.015 6.03V20.16C22.015 23.4 19.5789 25.515 16.6015 25.515C13.6241 25.515 11.188 23.31 11.188 20.16V6.03V6.03ZM8.52632 30.87C6.22556 30.87 4.46617 29.025 4.46617 26.865L4.42105 5.985C4.46617 3.285 8.43609 3.24 8.4812 5.985V25.515C8.4812 26.145 9.02256 26.82 9.74436 26.82H28.3759L23.5489 15.525C23.4135 15.075 23.3233 14.67 23.3233 14.22C23.3233 13.725 23.5489 12.96 23.8647 12.33L28.2857 5.04C28.6015 4.365 29.2782 3.96 30.0451 3.915C31.1278 3.87 32.0752 4.635 32.1203 5.805C32.1654 6.075 32.1203 6.615 32.0301 6.84L27.9699 13.365C27.5188 14.085 27.609 14.67 27.7895 15.21L33.9248 30.87H8.52632Z" fill="#DB2B36"/>
<path d="M54.398 5.09729V20.4839H50.0827V8.80228H46.988V14.861C46.988 17.084 46.77 20.7018 41.4087 20.7018C40.7549 20.7018 40.2754 20.7018 39.6216 20.4839V16.7789C39.9703 16.8661 40.2754 16.9533 40.5805 16.9533C42.4548 16.9533 42.7163 15.7764 42.7163 13.597V5.09729H54.398Z" fill="#292E33"/>
<path d="M61.1978 5.14087L64.2054 11.5919L66.6463 5.14087H71.3103L64.4233 20.4839H59.803L61.8952 16.2558L56.1416 5.14087H61.1978Z" fill="#292E33"/>
<path d="M73.3589 5.14087H77.6741V11.5919L82.2945 5.14087H87.3507L81.5099 12.5509L87.4814 20.4839H82.1201L77.6741 13.9021V20.4839H73.3589V5.14087Z" fill="#292E33"/>
<path d="M111.586 5.18446V14.338L117.514 5.18446H121.698V20.4839H117.557V11.3304L111.629 20.4839H107.445V5.18446H111.586ZM119.17 1.91535C118.342 3.70246 116.38 4.35629 114.593 4.35629C112.763 4.35629 110.845 3.70246 110.017 1.91535L112.457 1C112.85 2.04611 113.809 2.30764 114.593 2.30764C115.378 2.30764 116.337 2.04611 116.729 1L119.17 1.91535Z" fill="#292E33"/>
<path d="M138 5.18445V20.4839H133.728V8.84585H130.677V14.861C130.677 17.084 130.459 20.6582 125.142 20.6582C124.488 20.6582 124.008 20.6582 123.354 20.4403V16.7789C123.703 16.8661 124.008 16.9532 124.313 16.9532C126.188 16.9532 126.449 15.7764 126.449 13.597V5.18445H138Z" fill="#292E33"/>
<path d="M88.4839 12.856C88.4839 8.6715 91.1864 4.57422 96.8964 4.57422C102.65 4.57422 105.309 8.6715 105.309 12.856C105.309 17.0404 102.606 21.1377 96.8964 21.1377C91.1864 21.1377 88.4839 17.0404 88.4839 12.856ZM100.819 12.856C100.819 9.84838 98.945 8.3228 96.94 8.3228C94.8913 8.3228 93.017 9.80479 93.017 12.856C93.017 15.8635 94.8913 17.3891 96.94 17.3891C98.945 17.3455 100.819 15.8635 100.819 12.856Z" fill="#292E33"/>
<path d="M40.7112 27.458H43.2394V25.1478H44.1547V31.0758H43.2394V28.2862H40.7112V31.0758H39.7959V25.1478H40.7112V27.458Z" fill="#292E33"/>
<path d="M49.1675 25.976H46.8138V27.4144H49.124V28.2426H46.8138V30.2041H49.1675V31.0758H45.8984V25.1478H49.1675V25.976Z" fill="#292E33"/>
<path d="M53.2211 30.204H53.0904C51.2161 30.204 50.4751 29.1579 50.4751 27.8939C50.4751 25.6273 52.7417 25.5837 53.0904 25.5837H53.2211V24.8863H54.1365V25.5837H54.2673C54.6596 25.5837 56.8826 25.6273 56.8826 27.8939C56.8826 29.1579 56.098 30.204 54.2673 30.204H54.1365V31.0758H53.2211V30.204V30.204ZM53.2211 26.4555H53.0468C51.8699 26.4555 51.3469 27.1093 51.3469 27.8939C51.3469 28.722 51.8699 29.3759 53.0468 29.3759H53.2211V26.4555ZM54.1365 29.3759H54.3109C55.4877 29.3759 56.0108 28.722 56.0108 27.8939C56.0108 27.1093 55.4877 26.4555 54.3109 26.4555H54.1365V29.3759V29.3759Z" fill="#292E33"/>
<path d="M60.1079 25.976V31.0758H59.1925V25.976H57.8413V25.1478H61.4591V25.976H60.1079Z" fill="#292E33"/>
<path d="M63.9004 28.5913C63.5953 28.5477 63.2466 28.4169 62.985 28.199C62.5492 27.8503 62.462 27.3708 62.462 26.9349C62.462 26.4119 62.6363 26.0196 62.8979 25.7145C63.4209 25.1478 64.0747 25.1478 64.5106 25.1478H65.9926V31.0758H65.0773V28.7221H64.8593L63.2466 31.0758H62.1133L63.9004 28.5913ZM64.6414 25.976C64.2491 25.976 63.8568 26.0196 63.6389 26.2375C63.4645 26.4119 63.3773 26.717 63.3773 26.9349C63.3773 27.2401 63.5081 27.5016 63.6825 27.6323C63.8132 27.7195 64.0312 27.8503 64.5978 27.8503H65.0773V25.976C65.0773 25.976 64.6414 25.976 64.6414 25.976Z" fill="#292E33"/>
<path d="M68.695 27.458H71.2231V25.1478H72.1385V31.0758H71.2231V28.2862H68.695V31.0758H67.8232V25.1478H68.695V27.458Z" fill="#292E33"/>
<path d="M77.4559 29.6374H74.9278L74.274 31.0758H73.2715L76.2355 24.7991L79.0251 31.0758H78.0226L77.4559 29.6374ZM77.0637 28.7656L76.1919 26.7606L75.2765 28.7656H77.0637Z" fill="#292E33"/>
<path d="M81.4227 28.5913C81.1176 28.5477 80.7689 28.4169 80.5074 28.199C80.0715 27.8503 79.9843 27.3708 79.9843 26.9349C79.9843 26.4119 80.1587 26.0196 80.4638 25.7145C80.9868 25.1478 81.6407 25.1478 82.0765 25.1478H83.5585V31.0758H82.6432V28.7221H82.4253L80.8125 31.0758H79.6792L81.4227 28.5913ZM82.1637 25.976C81.7714 25.976 81.3791 26.0196 81.1612 26.2375C80.9868 26.4119 80.8997 26.717 80.8997 26.9349C80.8997 27.2401 81.0304 27.5016 81.2048 27.6323C81.3355 27.7195 81.5535 27.8503 82.1201 27.8503H82.5996V25.976C82.5996 25.976 82.1637 25.976 82.1637 25.976Z" fill="#292E33"/>
<path d="M89.8787 27.5016L92.1889 25.1478H93.3658L90.7069 27.8067L93.3658 31.0758H92.1889L89.8787 28.199V31.0758H88.9634V25.1478H89.8787V27.5016Z" fill="#292E33"/>
<path d="M100.209 28.1118C100.209 29.8553 98.9014 31.2066 97.1143 31.2066C95.3272 31.2066 94.0195 29.8553 94.0195 28.1118C94.0195 26.3683 95.3272 25.0171 97.1143 25.0171C98.9014 25.0171 100.209 26.3683 100.209 28.1118ZM99.2501 28.1118C99.2501 26.8042 98.3783 25.8888 97.1143 25.8888C95.8502 25.8888 94.9785 26.8042 94.9785 28.1118C94.9785 29.4195 95.8502 30.3348 97.1143 30.3348C98.3783 30.3348 99.2501 29.4195 99.2501 28.1118Z" fill="#292E33"/>
<path d="M101.299 31.0758L102.519 24.6684L104.612 29.2887L106.66 24.6684L107.793 31.0758H106.878L106.268 27.5016L104.524 31.3373L102.824 27.458L102.214 31.0758H101.299Z" fill="#292E33"/>
<path d="M113.765 25.1478V31.0758H112.85V25.976H110.322V31.0758H109.406V25.1478H113.765Z" fill="#292E33"/>
<path d="M119.039 29.6374H116.511L115.857 31.0758H114.854L117.818 24.7991L120.608 31.0758H119.606L119.039 29.6374ZM118.69 28.7656L117.818 26.7606L116.903 28.7656H118.69Z" fill="#292E33"/>
<path d="M122.701 27.458H125.229V25.1478H126.144V31.0758H125.229V28.2862H122.701V31.0758H121.785V25.1478H122.701V27.458Z" fill="#292E33"/>
<path d="M131.898 27.0657L127.888 31.2937V25.1478H128.803V29.1143L132.813 24.8863V31.0758H131.898V27.0657Z" fill="#292E33"/>
<path d="M135.864 28.5913C135.559 28.5477 135.21 28.4169 134.949 28.199C134.513 27.8503 134.426 27.3708 134.426 26.9349C134.426 26.4119 134.6 26.0196 134.905 25.7145C135.428 25.1478 136.082 25.1478 136.518 25.1478H138V31.0758H137.085V28.7221H136.867L135.254 31.0758H134.121L135.864 28.5913ZM136.605 25.976C136.213 25.976 135.821 26.0196 135.603 26.2375C135.472 26.4119 135.341 26.717 135.341 26.9349C135.341 27.2401 135.472 27.5016 135.646 27.6323C135.777 27.7195 135.995 27.8503 136.562 27.8503H137.041V25.976C137.041 25.976 136.605 25.976 136.605 25.976Z" fill="#292E33"/>
</g>
<defs>
<clipPath id="clip0">
<rect width="138" height="36" fill="white"/>
</clipPath>
</defs>
</svg>
