<svg width="46" height="56" viewBox="0 0 46 56" fill="none" xmlns="http://www.w3.org/2000/svg">
<g clip-path="url(#clip0)">
<path d="M45.7988 0.182434L45.7958 1.86536L25.3815 19.8029V52.9124C25.3715 52.9133 25.3624 52.9142 25.3544 52.916C24.2136 53.0546 23.3656 54.6719 23.0025 55.5011C22.6333 54.64 21.7773 52.9789 20.6366 52.9078C20.6305 52.9078 20.6245 52.9069 20.6185 52.9078V52.9069V19.8029L0.201172 1.86263V0.182434H45.7988ZM29.8981 11.4932C30.2301 11.1602 30.3669 10.6841 30.3035 10.0757C30.2381 9.44082 29.9414 8.89717 29.4203 8.46025C29.2755 8.33893 29.1115 8.22583 28.9324 8.12093V8.0215C28.9324 4.39568 26.5484 1.96023 23.0005 1.96023C19.2615 1.96023 16.8442 4.3747 16.8442 8.11089V8.22127C16.7285 8.29789 16.6199 8.37724 16.5203 8.46025C15.9992 8.89717 15.7025 9.44082 15.6371 10.0757C15.5747 10.6832 15.7105 11.1602 16.0435 11.4932C16.5123 11.9629 17.5101 12.0031 17.6248 12.0031C18.1952 12.0031 19.1961 11.838 19.4989 10.7315C19.9073 9.23832 21.2522 7.24161 21.2663 7.22154L21.2773 7.20512L21.2552 7.20421C21.2552 7.20421 21.222 7.2033 21.1586 7.2033C20.7895 7.2033 19.4858 7.23249 18.2364 7.60282C17.8713 7.71137 17.5413 7.8409 17.2496 7.98867C17.3019 4.54345 19.5461 2.32509 23.0005 2.32509C26.2718 2.32509 28.4798 4.56443 28.527 7.91022C28.2776 7.79529 28.003 7.69221 27.7042 7.60282C26.4548 7.23249 25.1512 7.2033 24.782 7.2033C24.7186 7.2033 24.6854 7.20421 24.6854 7.20421L24.6633 7.20512L24.6744 7.22154C24.6884 7.24161 26.0334 9.23832 26.4418 10.7315C26.7445 11.838 27.7464 12.0031 28.3158 12.0031C28.5452 12.0031 29.4243 11.9666 29.8981 11.4932ZM24.9852 15.1226C25.3674 14.7277 25.5696 14.1603 25.5696 13.4826C25.5696 11.6446 23.0367 8.24407 23.0116 8.21032L23.0005 8.19573L22.9904 8.21032C22.9623 8.24681 20.201 11.9438 20.201 13.4826C20.201 14.8973 21.2995 15.8113 23.0005 15.8113C23.8766 15.8113 24.5446 15.5796 24.9852 15.1226Z" fill="#FFEE3B"/>
<path d="M45.7989 0.182434V49.5064C45.7989 51.6353 44.4348 52.906 42.1504 52.906H25.5164C25.4661 52.906 25.4198 52.9078 25.3816 52.9123V19.8029L45.7959 1.86536L45.7989 0.182434ZM31.5057 41.6618H35.5324C35.5897 41.6618 35.643 41.6326 35.6682 41.5852C35.6933 41.5387 35.6863 41.4821 35.6511 41.4411C34.8755 40.538 34.1784 39.6031 33.5809 38.659C33.6121 38.6024 33.6423 38.5459 33.6714 38.4902C33.7016 38.4346 33.7318 38.3781 33.76 38.3224C34.5637 36.7991 35.1029 35.3014 35.4459 33.8638C36.2396 36.8739 37.4608 38.8104 37.4738 38.8314C37.501 38.8734 37.5493 38.8989 37.6026 38.8998H37.6046C37.6569 38.8998 37.7052 38.8752 37.7334 38.835C37.7485 38.8122 39.2875 36.5236 40.0138 33.0164C40.6817 29.7919 40.7833 24.848 37.4919 19.5712C38.0221 18.6262 38.6467 17.6913 39.3479 16.7928C39.3811 16.7508 39.3851 16.6961 39.3589 16.6505C39.3328 16.6049 39.2815 16.5766 39.2252 16.5766H35.1974C35.1401 16.5766 35.0878 16.6067 35.0626 16.6532C35.0375 16.7007 35.0435 16.7563 35.0787 16.7974C35.8553 17.7004 36.5514 18.6363 37.1489 19.5794C36.4991 20.7598 36.0092 21.9282 35.6491 23.0666C35.6491 23.0675 35.6491 23.0675 35.6491 23.0684C35.5083 23.509 35.3875 23.9459 35.2849 24.3765C34.4913 21.3654 33.2701 19.428 33.256 19.407C33.2298 19.3651 33.1805 19.3395 33.1282 19.3386C33.0739 19.3395 33.0256 19.3633 32.9975 19.4034C32.9824 19.4262 31.4433 21.7148 30.716 25.2229C30.0481 28.4465 29.9465 33.3904 33.2389 38.6672C32.7088 39.6122 32.0841 40.5472 31.3819 41.4465C31.3498 41.4885 31.3457 41.5432 31.3709 41.5879C31.397 41.6335 31.4493 41.6618 31.5057 41.6618Z" fill="#2AB0FD"/>
<path d="M25.5696 13.4826C25.5696 14.1603 25.3674 14.7277 24.9851 15.1227C24.5445 15.5797 23.8766 15.8113 23.0004 15.8113C21.2994 15.8113 20.2009 14.8974 20.2009 13.4826C20.2009 11.9438 22.9622 8.24682 22.9904 8.21033L23.0004 8.19574L23.0115 8.21033C23.0366 8.24408 25.5696 11.6446 25.5696 13.4826Z" fill="black"/>
<path d="M18.2364 7.60284C19.4857 7.2325 20.7894 7.20331 21.1586 7.20331C21.2219 7.20331 21.2551 7.20423 21.2551 7.20423L21.2773 7.20514L21.2662 7.22156C21.2521 7.24162 19.9072 9.23833 19.4988 10.7315C19.196 11.838 18.1951 12.0031 17.6248 12.0031C17.5101 12.0031 16.5122 11.9629 16.0434 11.4932C15.7105 11.1602 15.5747 10.6832 15.637 10.0757C15.7024 9.44083 15.9992 8.89719 16.5202 8.46026C16.6198 8.37726 16.7285 8.2979 16.8442 8.22128V8.11091C16.8442 4.37471 19.2614 1.96024 23.0004 1.96024C26.5483 1.96024 28.9324 4.39569 28.9324 8.02152V8.12094C29.1114 8.22584 29.2754 8.33895 29.4203 8.46026C29.9413 8.89719 30.2381 9.44083 30.3035 10.0757C30.3668 10.6841 30.23 11.1602 29.8981 11.4932C29.4243 11.9666 28.5451 12.0031 28.3157 12.0031C27.7464 12.0031 26.7445 11.838 26.4417 10.7315C26.0333 9.23833 24.6884 7.24162 24.6743 7.22156L24.6632 7.20514L24.6854 7.20423C24.6854 7.20423 24.7186 7.20331 24.7819 7.20331C25.1511 7.20331 26.4548 7.2325 27.7041 7.60284C28.0029 7.69223 28.2775 7.7953 28.527 7.91023C28.4797 4.56444 26.2717 2.3251 23.0004 2.3251C19.5461 2.3251 17.3018 4.54346 17.2495 7.98868C17.5413 7.84091 17.8712 7.71138 18.2364 7.60284Z" fill="black"/>
<path d="M6.64111 36.5245C6.64111 36.5245 4.37677 39.8165 2.1406 41.2905C2.1406 41.2905 5.50442 41.9619 9.75848 39.6578V41.9226H12.0822V39.6578C16.3362 41.9619 19.5451 41.2905 19.5451 41.2905C17.309 39.8165 15.0436 36.5245 15.0436 36.5245C15.8423 36.8273 18.1368 36.893 18.1368 36.893C15.7115 35.3524 13.9693 32.4563 13.9693 32.4563C14.6664 32.6798 16.7285 32.8376 16.7285 32.8376C14.9279 31.3106 13.1132 28.5322 13.1132 28.5322C13.8335 29.033 15.5375 28.9673 15.5375 28.9673C13.9693 27.9138 12.4936 25.7802 12.4936 25.7802C13.069 26.0311 14.4632 25.9389 14.4632 25.9389C12.4192 24.63 11.7733 22.948 11.7542 22.8951C12.2773 23.2362 13.5045 23.1468 13.5045 23.1468C12.4453 22.1334 10.8429 18.7493 10.8429 18.7493C10.8429 18.7493 9.24043 22.1334 8.18118 23.1468C8.18118 23.1468 9.40841 23.2362 9.9315 22.8951C9.91238 22.948 9.26658 24.63 7.22254 25.9389C7.22254 25.9389 8.61675 26.0311 9.19214 25.7802C9.19214 25.7802 7.71645 27.9138 6.14821 28.9673C6.14821 28.9673 7.85124 29.033 8.57249 28.5322C8.57249 28.5322 6.7578 31.3106 4.95719 32.8376C4.95719 32.8376 7.01733 32.6798 7.71544 32.4572C7.68929 32.5019 5.95406 35.3642 3.54889 36.893C3.54889 36.893 5.84241 36.8273 6.64111 36.5245ZM20.5611 52.9059H3.71789C1.28858 52.9059 0.201172 51.1984 0.201172 49.5063V1.86258L20.6185 19.8029V52.9068V52.9078C20.5993 52.9059 20.5792 52.9059 20.5611 52.9059Z" fill="white"/>
<path d="M7.71547 32.4572C7.01735 32.6798 4.95722 32.8376 4.95722 32.8376C6.75783 31.3107 8.57252 28.5322 8.57252 28.5322C7.85127 29.033 6.14823 28.9673 6.14823 28.9673C7.71647 27.9138 9.19217 25.7803 9.19217 25.7803C8.61678 26.0311 7.22256 25.939 7.22256 25.939C9.26661 24.63 9.91241 22.948 9.93152 22.8951C9.40844 23.2363 8.18121 23.1469 8.18121 23.1469C9.24045 22.1335 10.8429 18.7494 10.8429 18.7494C10.8429 18.7494 12.4453 22.1335 13.5046 23.1469C13.5046 23.1469 12.2773 23.2363 11.7543 22.8951C11.7734 22.948 12.4192 24.63 14.4632 25.939C14.4632 25.939 13.069 26.0311 12.4936 25.7803C12.4936 25.7803 13.9693 27.9138 15.5376 28.9673C15.5376 28.9673 13.8335 29.033 13.1133 28.5322C13.1133 28.5322 14.928 31.3107 16.7286 32.8376C16.7286 32.8376 14.6664 32.6798 13.9693 32.4563C13.9693 32.4563 15.7116 35.3524 18.1369 36.8931C18.1369 36.8931 15.8423 36.8274 15.0436 36.5245C15.0436 36.5245 17.309 39.8165 19.5452 41.2906C19.5452 41.2906 16.3363 41.9619 12.0822 39.6578V41.9227H9.7585V39.6578C5.50444 41.9619 2.14062 41.2906 2.14062 41.2906C4.3768 39.8165 6.64114 36.5245 6.64114 36.5245C5.84243 36.8274 3.54892 36.8931 3.54892 36.8931C5.95409 35.3643 7.68931 32.5019 7.71547 32.4572Z" fill="#43AA54"/>
<path d="M0.5 0.500107V50.0001C0.5 51.7228 1.58223 53.5001 4 53.5001C4 53.5001 19.994 53.5001 20 53.5001C21.1353 53.5725 22.477 55.1234 22.8444 56.0001C23.2058 55.1559 23.8647 53.6412 25 53.5001C25.008 53.4982 42 53.5001 42 53.5001C44.2736 53.5001 45.5 52.0578 45.5 49.8901V0.500061L0.5 0.500107Z" stroke="#DFE5EB" stroke-miterlimit="10"/>
<path d="M38.9354 16.8502C38.3308 17.6429 37.7866 18.4611 37.3128 19.2893C36.7797 18.4638 36.1731 17.6447 35.5042 16.8502H38.9354Z" fill="#BBBCBE"/>
<path d="M39.719 32.9544C39.1295 35.8122 37.9948 37.8463 37.6085 38.4811C37.2514 37.859 36.2203 35.9152 35.5906 33.1997C35.6932 32.6871 35.7717 32.1836 35.829 31.6901V31.6892C36.1167 29.2191 35.8773 27.0117 35.5041 25.2868C35.485 25.202 35.4659 25.119 35.4468 25.035C35.5725 24.4157 35.7345 23.7836 35.9377 23.1414C36.2767 22.0724 36.7313 20.9759 37.3289 19.8677C40.4714 25.0077 40.3688 29.8111 39.719 32.9544Z" fill="#BBBCBE"/>
<path d="M35.4256 32.4198C35.1158 30.7952 34.9418 28.793 35.2003 26.5765C35.2295 26.3266 35.2647 26.0739 35.3049 25.8185C35.6148 27.4439 35.7878 29.4461 35.5303 31.6618C35.5011 31.9117 35.4659 32.1644 35.4256 32.4198Z" fill="#BBBCBE"/>
<path d="M33.418 38.9491C33.9511 39.7755 34.5577 40.5937 35.2256 41.3882H31.7954C32.399 40.5955 32.9442 39.7773 33.418 38.9491Z" fill="#BBBCBE"/>
<path d="M33.1221 19.7573C33.4792 20.3794 34.5103 22.3223 35.141 25.0414C35.0384 25.5532 34.9599 26.0558 34.9036 26.5483C34.9036 26.5492 34.9036 26.5492 34.9036 26.5502C34.6139 29.0194 34.8533 31.2268 35.2265 32.9517C35.2446 33.0365 35.2637 33.1204 35.2828 33.2034C34.9569 34.8033 34.3926 36.4899 33.4903 38.2048C33.4611 38.2604 33.4319 38.3151 33.4018 38.3708C30.2592 33.2308 30.3608 28.4274 31.0107 25.2841C31.6011 22.4263 32.7358 20.3922 33.1221 19.7573Z" fill="#BBBCBE"/>
</g>
<defs>
<clipPath id="clip0">
<rect width="46" height="56" fill="white"/>
</clipPath>
</defs>
</svg>
