<svg width="102" height="64" viewBox="0 0 102 64" fill="none" xmlns="http://www.w3.org/2000/svg">
<g clip-path="url(#clip0)">
<path d="M6.22088 56.9331C6.98707 56.9331 7.46446 56.8271 7.68548 56.5917C7.90355 56.3651 8.01553 56.1797 8.01553 56.0444C8.01553 55.8972 7.90355 55.7089 7.68548 55.4823C7.46446 55.2469 6.98707 55.1292 6.22088 55.1292H2.86437V56.9331H6.22088ZM2.86437 62.0946H0.0176813L0 59.4991V55.6765L0.0176813 53.0781H7.54697C8.82592 53.0781 9.70409 53.3017 10.1697 53.749C10.6294 54.2051 10.8622 54.8437 10.8622 55.6736V56.4004C10.8622 57.2332 10.6294 57.8718 10.1697 58.3191C9.70409 58.7664 8.82592 58.9812 7.54697 58.9812H2.86437V62.0946Z" fill="#292E33"/>
<path d="M20.5487 56.5682C20.5487 56.0679 20.4308 55.7059 20.2157 55.4794C19.9976 55.2439 19.5084 55.1262 18.7629 55.1262H17.1539C16.4643 55.1262 15.9957 55.2645 15.76 55.5147C15.5242 55.756 15.4181 56.1062 15.4181 56.5652V58.6222C15.4181 59.0607 15.5242 59.4167 15.76 59.658C15.9957 59.917 16.4643 60.0406 17.1539 60.0406H18.7629C19.5055 60.0406 19.9917 59.9199 20.2068 59.6963C20.3984 59.4815 20.5192 59.1078 20.5457 58.631V56.5682H20.5487ZM22.7028 61.4413C22.2461 61.8739 21.362 62.0946 20.0948 62.0946H15.9014C14.6372 62.0946 13.7502 61.8916 13.2846 61.4413C12.7807 61.0264 12.5449 60.3614 12.5449 59.4991V55.6765C12.5449 54.8084 12.7807 54.1551 13.2846 53.7225C13.7502 53.3047 14.6372 53.0781 15.9014 53.0781H20.0948C21.3591 53.0781 22.2431 53.3017 22.7028 53.749C23.1714 54.2051 23.416 54.8437 23.416 55.6736V59.4962C23.413 60.3466 23.1714 60.9793 22.7028 61.4413Z" fill="#292E33"/>
<path d="M35.227 61.4413C34.7614 61.8739 33.8891 62.0946 32.6279 62.0946H28.4433C27.1791 62.0946 26.3009 61.8916 25.8058 61.4413C25.3137 61.0264 25.0691 60.3614 25.0691 59.4991V55.6765C25.0691 54.8084 25.3137 54.1551 25.8058 53.7225C26.3009 53.3047 27.1791 53.0781 28.4433 53.0781H32.6279C33.8891 53.0781 34.7614 53.3017 35.227 53.749C35.7103 54.2051 35.9402 54.8437 35.9402 55.6736V56.5652H33.0787C33.0787 56.065 32.9667 55.703 32.7575 55.4764C32.5306 55.241 32.0532 55.1233 31.3047 55.1233H29.6986C29.0061 55.1233 28.5376 55.2616 28.2871 55.5117C28.0602 55.753 27.9335 56.1032 27.9335 56.5623V58.6193C27.9335 59.0577 28.0602 59.4138 28.2871 59.6551C28.5346 59.9141 29.0061 60.0377 29.6986 60.0377H31.3047C32.0532 60.0377 32.5306 59.917 32.7575 59.6934C32.9667 59.4785 33.0787 59.1048 33.0787 58.6193H35.9402V59.4933C35.9402 60.3466 35.7103 60.9793 35.227 61.4413Z" fill="#292E33"/>
<path d="M40.4578 62.0946H37.6259L37.6052 59.4991V55.6795L37.6259 53.081H40.4578V56.5358H45.5942V53.081H48.4763V62.0946H45.5942V58.5839H40.4578V62.0946Z" fill="#292E33"/>
<path d="M53.8132 58.5839H52.9998C53.0175 59.0489 53.1295 59.4197 53.3682 59.6639C53.5951 59.9229 54.0725 60.0465 54.768 60.0465H61.0095V62.0976H53.5126C52.2454 62.0976 51.3732 61.8945 50.8692 61.4443C50.3889 61.0294 50.1414 60.3643 50.1414 59.5021V55.6795C50.1414 54.8114 50.3889 54.1581 50.8692 53.7255C51.3732 53.3076 52.2454 53.081 53.5126 53.081H61.0095V55.1292H54.768C54.0725 55.1292 53.5951 55.2675 53.3682 55.5176C53.1295 55.7589 53.0146 56.0914 52.9998 56.5358H61.0095V58.5839H53.8132Z" fill="#292E33"/>
<path d="M82.9872 55.1262H79.0649V53.081H89.9213V55.1262H85.8339V62.0946H82.9872V55.1262Z" fill="#292E33"/>
<path d="M94.0617 58.2367V60.0376H97.4152C98.1726 60.0376 98.6559 59.9199 98.874 59.6992C99.0891 59.4638 99.1952 59.2813 99.1952 59.146C99.1952 58.9988 99.0891 58.8017 98.874 58.581C98.6559 58.3367 98.1726 58.2337 97.4152 58.2337H94.0617V58.2367ZM94.0617 56.1856H98.7502C100.014 56.1856 100.896 56.4151 101.358 56.8713C101.83 57.3038 102.062 57.9512 102.062 58.7899V59.5021C102.062 60.3319 101.83 60.9793 101.358 61.4207C100.896 61.8709 100.014 62.0975 98.7502 62.0975H91.2091L91.1914 59.5021V55.6677L91.2091 53.0781H94.0587V56.1856H94.0617Z" fill="#292E33"/>
<path d="M65.4209 57.3568C65.4209 56.2297 66.4169 56.3533 66.4169 56.3533H69.299V58.2573H66.3963C66.3963 58.2573 65.4209 58.2955 65.4209 57.3568ZM75.0307 58.2573H72.125V56.3533H75.013C75.013 56.3533 76.009 56.2297 76.009 57.3568C76.009 58.2955 75.0307 58.2573 75.0307 58.2573ZM76.5454 54.4435H72.125V53.0221H69.3137V54.4435H64.7873C64.7873 54.4435 62.2029 54.5317 62.2029 57.2744C62.2029 60.0376 64.858 60.0612 64.858 60.0612H69.3167V62.1652H72.128V60.0612H76.4776C76.4776 60.0612 79.1209 60.0376 79.1209 57.2744C79.1209 54.5317 76.5454 54.4435 76.5454 54.4435Z" fill="#292E33"/>
<path d="M48.3231 24.8338H44.3359V43.5819H48.3231V24.8338Z" fill="#FFD100"/>
<path d="M53.0499 20.9611H49.0627V43.5819H53.0499V20.9611Z" fill="#FFD100"/>
<path d="M57.762 24.8338H53.7837V43.5819H57.762V24.8338Z" fill="#FFD100"/>
<path d="M38.8841 25.5754L34.9058 22.2177V12.6214H38.8841V25.5754Z" fill="#292E33"/>
<path d="M43.6168 29.7569L39.6208 26.0579V8.37207H43.6168V29.7569Z" fill="#292E33"/>
<path d="M48.3231 4.1875H44.3359V24.2452H48.3231V4.1875Z" fill="#292E33"/>
<path d="M53.0499 0H49.0627V20.1371H53.0499V0Z" fill="#292E33"/>
<path d="M63.2283 25.5754L67.2066 22.2177V12.6214H63.2283V25.5754Z" fill="#292E33"/>
<path d="M58.5044 29.7569L62.4768 26.0579V8.37207H58.5044V29.7569Z" fill="#292E33"/>
<path d="M57.762 4.1875H53.7837V24.2452H57.762V4.1875Z" fill="#292E33"/>
</g>
<defs>
<clipPath id="clip0">
<rect width="102" height="64" fill="white"/>
</clipPath>
</defs>
</svg>
