<svg width="104" height="104" viewBox="0 0 104 104" fill="none" xmlns="http://www.w3.org/2000/svg">
<g clip-path="url(#clip0)">
<path d="M52 0C44.9893 0 38.1804 1.387 31.7498 4.08535C25.5461 6.70805 19.9981 10.4656 15.2318 15.2318C10.4656 19.9981 6.70805 25.5713 4.08535 31.7498C1.387 38.1804 0 44.9893 0 52C0 59.0107 1.387 65.8196 4.08535 72.2502C6.70805 78.4287 10.4656 84.0019 15.2318 88.7682C19.9981 93.5344 25.5713 97.292 31.7498 99.9147C38.1552 102.638 44.9641 104 52 104C59.0359 104 65.8196 102.613 72.2502 99.9147C78.4287 97.292 84.0019 93.5597 88.7682 88.7682C93.5344 84.0019 97.292 78.4287 99.9147 72.2502C102.638 65.8448 104 59.0359 104 52C104 44.9641 102.613 38.1804 99.9147 31.7498C97.292 25.5713 93.5597 19.9981 88.7682 15.2318C84.0019 10.4656 78.4287 6.70805 72.2502 4.08535C65.8448 1.387 59.0107 0 52 0Z" fill="white"/>
<path d="M52 100.035C78.5097 100.035 100 78.5443 100 52.0347C100 25.525 78.5097 4.03467 52 4.03467C25.4903 4.03467 4 25.525 4 52.0347C4 78.5443 25.4903 100.035 52 100.035Z" fill="#01AA51"/>
<path d="M43.8457 40.2732H56.707L66.6934 9.63307C64.8273 9.02783 62.8855 8.54868 60.9184 8.17041L43.8457 40.2732Z" fill="white"/>
<path d="M20.897 83.4215C25.9154 88.4399 32.1191 92.2983 39.0541 94.4671L52.8989 51.9995H37.6167L20.897 83.4215Z" fill="white"/>
<path d="M92.8955 49.4023L91.6346 42.896H14.3659L13.105 49.4023H23.2175L19.7122 64.8863H23.3436L30.329 49.4023H78.1933L85.2039 64.8863H88.8353L85.33 49.4023H92.8955Z" fill="white"/>
<path d="M69.3414 10.5916L61.9272 40.2734H75.0659L76.0242 13.9204C73.9311 12.6342 71.6867 11.5246 69.3414 10.5916Z" fill="white"/>
<path d="M47.9814 96.2323C49.6206 96.4088 51.3103 96.5097 52.9999 96.5097C60.2627 96.5097 67.1221 94.7697 73.1745 91.6678L74.6372 51.9995H59.0018L47.9814 96.2323Z" fill="white"/>
<path d="M35.4478 70.7874H38.9531L45.535 54.7234H42.6097L35.4478 70.7874Z" fill="#292E33"/>
<path d="M50.3018 37.5493H52.6471L57.489 25.6211H55.6228L50.3018 37.5493Z" fill="#292E33"/>
<path d="M62.356 70.7874H65.7352L67.7778 54.7234H64.9786L62.356 70.7874Z" fill="#292E33"/>
<path d="M67.8032 37.5493H70.0224L71.5355 25.6211H69.7703L67.8032 37.5493Z" fill="#292E33"/>
<path d="M28.564 86.2459C29.5979 86.9773 30.6319 87.6582 31.7415 88.2886L37.9704 73.1577H34.3894L28.564 86.2459Z" fill="#292E33"/>
<path d="M58.5737 93.6854C60.0364 93.4837 61.4738 93.2315 62.8861 92.8784L65.4331 73.1326H61.9782L58.5737 93.6854Z" fill="#292E33"/>
<path d="M71.6112 14.2734L70.0225 24.1338H71.7373L72.9226 14.9291C72.4686 14.7274 72.0399 14.5004 71.6112 14.2734Z" fill="#292E33"/>
<path d="M62.1537 10.9443L56.2778 24.1335H58.1188L63.3894 11.2217C62.9607 11.1461 62.5572 11.0452 62.1537 10.9443Z" fill="#292E33"/>
</g>
<defs>
<clipPath id="clip0">
<rect width="104" height="104" fill="white"/>
</clipPath>
</defs>
</svg>
