<svg width="150" height="40" viewBox="0 0 150 40" fill="none" xmlns="http://www.w3.org/2000/svg">
<g clip-path="url(#clip0)">
<path d="M35.2484 22.3083C35.2484 31.8647 27.6644 39.6171 18.3111 39.6171C8.95777 39.6171 1.37378 31.8647 1.37378 22.3083C1.37378 12.7519 8.95777 4.99957 18.3111 4.99957C27.6644 4.99957 35.2484 12.7519 35.2484 22.3083Z" stroke="#292E33" stroke-width="0.9056" stroke-miterlimit="2.6131"/>
<path fill-rule="evenodd" clip-rule="evenodd" d="M20.0305 8.32686C20.0305 8.32686 17.7877 6.36112 18.7679 3.87628C19.6484 1.62972 21.9577 1 21.9577 1C21.9577 1 21.8165 1.36592 21.8829 1.97011C21.9826 2.79555 22.7884 3.81671 22.4062 5.51866C21.9909 7.39079 20.0305 8.32686 20.0305 8.32686Z" fill="#EF2B2F"/>
<path fill-rule="evenodd" clip-rule="evenodd" d="M19.931 8.52258C19.931 8.52258 14.4818 22.2147 14.2741 22.8444C14.0664 23.4741 13.6096 29.1076 19.9725 29.1076C26.5846 29.1076 25.9616 22.7508 26.0031 22.8444C25.7623 22.2147 19.931 8.52258 19.931 8.52258Z" fill="#292E33"/>
<path fill-rule="evenodd" clip-rule="evenodd" d="M27.9551 22.9806C27.9468 24.5719 27.5813 30.9627 20.0887 30.9627C11.782 30.9627 12.3801 23.4656 12.6542 22.6232C12.8536 22.019 16.5833 13.1944 18.66 8.30132C18.4523 8.29281 18.2446 8.2843 18.037 8.2843C10.3533 8.2843 4.12329 14.6496 4.12329 22.504C4.12329 30.3585 10.3533 36.7238 18.037 36.7238C25.5628 36.7238 31.6931 30.6138 31.9423 22.9806H27.9551Z" fill="#005B9A"/>
<path fill-rule="evenodd" clip-rule="evenodd" d="M62.6023 33.0561L62.6687 31.1244C62.6687 31.1244 62.8349 31.1754 63.2585 31.0478C63.6822 30.9202 64.1889 30.4436 64.1224 28.3758V14.0965L70.6265 14.1645V33.1497H68.0847V16.5643H66.739V27.746C66.739 33.2433 66.6559 33.0646 63.6655 33.0646H62.6023V33.0561Z" fill="#292E33"/>
<path fill-rule="evenodd" clip-rule="evenodd" d="M75.9428 23.5082V29.9756C75.9428 29.9756 75.8182 31.0393 75.3032 31.0393C74.7799 31.0393 74.7633 30.1117 74.7633 29.6777V25.4739C74.7633 24.4613 75.2285 23.9081 75.9428 23.5082ZM75.8598 32.1796V33.1922H78.5262V17.177C78.5262 15.1772 78.1358 14.173 76.2004 14.173C75.4195 14.173 73.6336 14.0624 73.077 14.4283C72.2547 14.9814 72.0221 15.9856 72.0221 17.177V20.3H74.7882C74.7882 20.3 74.7218 17.3982 74.7633 16.7515C74.8131 16.0026 75.9428 16.1047 75.9428 16.8195C75.9428 17.5514 75.9428 19.449 75.9428 20.0192C75.9428 22.9891 71.8975 22.1636 71.8975 25.6186L71.856 31.6179C71.939 32.6391 72.3959 33.2688 73.6834 33.2688C75.4444 33.2773 75.8598 32.1796 75.8598 32.1796Z" fill="#292E33"/>
<path fill-rule="evenodd" clip-rule="evenodd" d="M83.5683 31.3286V24.8698L84.0418 24.8612C84.4655 24.8612 84.6731 25.1846 84.6731 26.1973L84.6233 30.1202C84.6233 31.1329 84.5568 31.3201 84.1249 31.3201L83.5683 31.3286ZM83.5517 23.1082L83.5683 16.4281H84.1664C84.5901 16.4281 84.6233 16.8621 84.6233 17.8748V21.5595C84.615 21.9084 84.6731 23.1082 83.9172 23.1082H83.5517ZM87.5389 25.559C87.4891 24.5464 86.7415 23.5933 85.5536 23.4912C87.2565 23.338 87.5389 22.8444 87.4974 20.9978V16.6324C87.4974 15.5431 87.0821 14.3177 85.2795 14.3177H80.8521L80.8936 33.3029L85.0469 33.3199C86.8495 33.3369 87.4891 32.6732 87.5389 31.5158V25.559Z" fill="#292E33"/>
<path fill-rule="evenodd" clip-rule="evenodd" d="M112.841 17.662V22.9295H111.487V17.6365C111.487 16.7515 111.794 16.3685 112.168 16.3685C112.534 16.3685 112.841 16.777 112.841 17.662ZM115.549 26.5121H112.708V30.8435C112.708 31.1924 112.534 31.3201 112.168 31.3201C111.794 31.3201 111.487 31.2775 111.487 30.8435V25.0655H115.59V16.8025C115.532 14.9474 114.095 14.3943 112.16 14.3943C110.133 14.3943 108.821 14.7347 108.821 16.9387V30.9201C108.829 33.2688 109.568 33.4816 112.201 33.4816C114.702 33.4816 115.532 32.9199 115.541 30.9201L115.549 26.5121Z" fill="#292E33"/>
<path fill-rule="evenodd" clip-rule="evenodd" d="M125.617 33.2348C126.597 33.2348 127.851 33.1667 127.851 31.3967V16.5643C127.851 14.7347 127.129 14.3007 125.7 14.3007H119.295C118.315 14.3007 117.302 14.99 117.302 16.4366V31.269C117.302 32.9114 118.498 33.2348 119.478 33.2348H125.617ZM120.093 17.7216C120.093 17.7216 119.918 16.8025 120.683 16.8025C121.439 16.8025 121.389 17.7471 121.389 17.7471V30.1117C121.389 30.1117 121.405 31.252 120.791 31.252C119.968 31.252 120.093 30.0947 120.093 30.1713V17.7216ZM123.972 17.7216C123.972 17.7216 123.806 16.8025 124.562 16.8025C125.326 16.8025 125.268 17.7471 125.268 17.7471V30.1117C125.268 30.1117 125.285 31.252 124.67 31.252C123.847 31.252 123.972 30.0947 123.972 30.1713V17.7216Z" fill="#292E33"/>
<path fill-rule="evenodd" clip-rule="evenodd" d="M132.735 17.6195C132.735 17.5939 132.735 33.1497 132.735 33.1497H130.194L130.16 14.3007L132.819 14.3432V15.3559C132.819 15.3559 133.915 14.3858 135.053 14.3858C136.399 14.3858 136.615 15.5942 136.615 15.5942C136.615 15.5942 137.246 14.3773 138.891 14.3858C140.535 14.3943 140.826 16.5813 140.826 16.5813L140.785 33.1667L137.919 33.1242C137.919 33.1242 137.919 18.4279 137.919 17.7046C137.919 16.5813 136.673 16.6238 136.673 17.7046C136.673 18.3939 136.673 33.1497 136.673 33.1497H133.957C133.957 33.1497 133.957 17.679 133.957 17.662C133.94 16.6919 132.735 16.6494 132.735 17.6195Z" fill="#292E33"/>
<path fill-rule="evenodd" clip-rule="evenodd" d="M146.525 30.0096C146.525 31.0222 146.234 31.5754 145.918 31.5754H145.312L145.303 24.4698H145.935C146.358 24.4698 146.525 24.6144 146.525 25.6356V30.0096ZM148.983 30.5287V24.9548C149.066 22.3764 148.169 22.5551 146.923 22.5551H145.303V14.3858H142.546V33.1922H146.923C148.493 33.1837 149.083 33.0305 148.983 30.5287Z" fill="#292E33"/>
<path fill-rule="evenodd" clip-rule="evenodd" d="M100.613 4.90594V20.8957H96.186V14.3432H89.3164V33.1667H96.186V26.4951H100.613V33.1667H107.483V4.90594H100.613Z" fill="#005B9A"/>
<path fill-rule="evenodd" clip-rule="evenodd" d="M96.1695 4.78683C96.1695 4.78683 57.4022 4.78683 55.1179 4.78683C51.3134 4.78683 42.0681 7.76523 42.0681 18.7683C42.0681 29.7713 50.4329 32.3583 55.7492 33.0135C59.0387 33.2688 60.6917 33.0135 60.6917 33.0135V25.542C60.6917 25.542 56.7626 25.6356 54.6112 25.3718C53.0994 25.1931 48.9128 23.9507 48.9128 18.8959C48.9128 14.2326 52.4598 12.0371 54.8687 12.0371C56.2642 12.0371 96.0449 12.0371 96.0449 12.0371L96.1695 4.78683Z" fill="#EF2B2F"/>
<path d="M149 4.78683H108.829V12.0371H149V4.78683Z" fill="#EF2B2F"/>
</g>
<defs>
<clipPath id="clip0">
<rect width="150" height="40" fill="white"/>
</clipPath>
</defs>
</svg>
